<?xml version="1.0" encoding="utf-8"?>
<!-- Generator: Adobe Illustrator 24.0.2, SVG Export Plug-In . SVG Version: 6.00 Build 0)  -->
<svg version="1.1" id="Слой_1" xmlns="http://www.w3.org/2000/svg" xmlns:xlink="http://www.w3.org/1999/xlink" x="0px" y="0px"
	 viewBox="0 0 208.8 100" style="enable-background:new 0 0 208.8 100;" xml:space="preserve">
<style type="text/css">
	.st0{fill:#FFFFFF;}
</style>
<g id="Слой_3">
	<g>
		<path class="st0" d="M92.6,36.8v26.5H66.2V36.8H92.6 M94.1,35.3H64.7v29.4h29.4V35.3L94.1,35.3z"/>
	</g>
	<g>
		<path class="st0" d="M27.9,72.1v26.5H1.5V72.1H27.9 M29.4,70.6H0V100h29.4V70.6L29.4,70.6z"/>
	</g>
	<g>
		<path class="st0" d="M122.1,72.1v26.5H66.2V72.1H122.1 M123.5,70.6H64.7V100h58.8V70.6L123.5,70.6z"/>
	</g>
	<g>
		<path class="st0" d="M122.1,1.5v26.5H66.2V1.5H122.1 M123.5,0H64.7v29.4h58.8V0L123.5,0z"/>
	</g>
	<g>
		<path class="st0" d="M57.4,36.8v26.5H1.5V36.8H57.4 M58.8,35.3H0v29.4h58.8V35.3L58.8,35.3z"/>
	</g>
	<g>
		<path class="st0" d="M57.4,1.5v26.5H1.5V1.5H57.4 M58.8,0H0v29.4h58.8V0L58.8,0z"/>
	</g>
	<polygon class="st0" points="157.4,98.5 147.6,98.5 130.9,98.5 130.9,72.1 147.6,72.1 157.4,72.1 158.8,72.1 158.8,70.6 
		129.4,70.6 129.4,100 158.8,100 158.8,98.5 	"/>
	<path class="st0" d="M158.8,0v1.5c13,0,25.1,5.1,34.3,14.2c9.2,9.2,14.2,21.4,14.2,34.3s-5.1,25.1-14.2,34.3
		c-9.2,9.1-21.4,14.2-34.3,14.2v1.5c27.6,0,50-22.4,50-50S186.4,0,158.8,0z"/>
	<g>
		<path class="st0" d="M158.8,27.9v1.5c11.4,0,20.6,9.2,20.6,20.6s-9.2,20.6-20.6,20.6v1.5c12.2,0,22.1-9.9,22.1-22.1
			S171,27.9,158.8,27.9z"/>
	</g>
	<polygon class="st0" points="157.4,63.2 147.6,63.2 130.9,63.2 130.9,36.8 147.6,36.8 157.4,36.8 158.8,36.8 158.8,35.3 
		129.4,35.3 129.4,64.7 158.8,64.7 158.8,63.2 	"/>
	<polygon class="st0" points="157.4,27.9 147.6,27.9 130.9,27.9 130.9,1.5 147.6,1.5 157.4,1.5 158.8,1.5 158.8,0 129.4,0 
		129.4,29.4 158.8,29.4 158.8,27.9 	"/>
	<path class="st0" d="M158.8,35.3v1.5c7.3,0,13.2,5.9,13.2,13.2s-5.9,13.2-13.2,13.2v1.5c8.1,0,14.7-6.6,14.7-14.7
		S166.9,35.3,158.8,35.3z"/>
</g>
</svg>
