<?xml version="1.0" encoding="utf-8"?>
<!-- Generator: Adobe Illustrator 24.0.2, SVG Export Plug-In . SVG Version: 6.00 Build 0)  -->
<svg version="1.1" id="Capa_1" xmlns="http://www.w3.org/2000/svg" xmlns:xlink="http://www.w3.org/1999/xlink" x="0px" y="0px"
	 viewBox="0 0 511.6 511.6" style="enable-background:new 0 0 511.6 511.6;" xml:space="preserve">
<style type="text/css">
	.st0{fill:#FFFFFF;}
</style>
<g>
	<g>
		<rect x="134.8" y="66.7" class="st0" width="17.7" height="320.9"/>
		<rect x="98.8" y="66.7" class="st0" width="8.8" height="320.9"/>
		<rect x="197.6" y="66.7" class="st0" width="8.9" height="320.9"/>
		<rect x="179.6" y="66.7" class="st0" width="8.9" height="320.9"/>
		<rect x="26.8" y="66.7" class="st0" width="9.1" height="320.9"/>
		<rect x="54" y="66.7" class="st0" width="8.9" height="320.9"/>
		<rect y="66.7" class="st0" width="18" height="321.1"/>
		<rect x="215.6" y="66.7" class="st0" width="8.9" height="320.9"/>
		<rect x="394.9" y="66.7" class="st0" width="18" height="320.9"/>
		<rect x="440" y="66.7" class="st0" width="26.8" height="320.9"/>
		<rect x="475.7" y="66.7" class="st0" width="9.1" height="320.9"/>
		<rect x="493.6" y="66.7" class="st0" width="18" height="321.1"/>
		<rect x="332" y="66.7" class="st0" width="18" height="320.9"/>
		<rect x="368" y="66.7" class="st0" width="18" height="320.9"/>
		<rect x="296.1" y="66.7" class="st0" width="18" height="320.9"/>
		<rect x="251.2" y="66.7" class="st0" width="18" height="320.9"/>
	</g>
</g>
<g>
	<path class="st0" d="M4.8,453v-4l5.2-5c12.4-11.8,18.1-18.1,18.1-25.5c0-5-2.4-9.5-9.7-9.5c-4.4,0-8.1,2.3-10.3,4.1L6,408.4
		c3.4-2.8,8.2-5,13.8-5c10.5,0,14.9,7.2,14.9,14.2c0,9-6.5,16.3-16.8,26.2l-3.9,3.6v0.2h21.9v5.5H4.8z"/>
	<path class="st0" d="M88.4,404.3v4.3L67.2,453h-6.8l21.1-43.1v-0.2H57.7v-5.5H88.4z"/>
	<path class="st0" d="M123.1,410.4h-0.1l-8.5,4.6l-1.3-5l10.6-5.7h5.6V453h-6.4V410.4z"/>
	<path class="st0" d="M160.7,453v-4l5.2-5c12.4-11.8,18.1-18.1,18.1-25.5c0-5-2.4-9.5-9.7-9.5c-4.4,0-8.1,2.3-10.3,4.1l-2.1-4.6
		c3.4-2.8,8.2-5,13.8-5c10.5,0,14.9,7.2,14.9,14.2c0,9-6.5,16.3-16.8,26.2l-3.9,3.6v0.2h21.9v5.5H160.7z"/>
	<path class="st0" d="M227,410.4h-0.1l-8.5,4.6l-1.3-5l10.6-5.7h5.6V453H227V410.4z"/>
	<path class="st0" d="M268.5,448.4c1.4,0.1,3.1,0,5.3-0.2c3.8-0.5,7.4-2.1,10.2-4.7c3.2-2.9,5.5-7.2,6.5-13h-0.2
		c-2.7,3.3-6.6,5.3-11.5,5.3c-8.8,0-14.4-6.6-14.4-14.9c0-9.2,6.7-17.3,16.6-17.3s16.1,8.1,16.1,20.5c0,10.7-3.6,18.2-8.4,22.9
		c-3.8,3.7-8.9,5.9-14.2,6.5c-2.4,0.4-4.5,0.5-6.1,0.4V448.4z M270.9,420.3c0,6.1,3.7,10.3,9.4,10.3c4.4,0,7.9-2.2,9.6-5.1
		c0.4-0.6,0.6-1.3,0.6-2.4c0-8.3-3.1-14.7-10-14.7C274.9,408.5,270.9,413.4,270.9,420.3z"/>
	<path class="st0" d="M320.5,448.4c1.4,0.1,3.1,0,5.3-0.2c3.8-0.5,7.4-2.1,10.2-4.7c3.2-2.9,5.5-7.2,6.5-13h-0.2
		c-2.7,3.3-6.6,5.3-11.5,5.3c-8.8,0-14.4-6.6-14.4-14.9c0-9.2,6.7-17.3,16.6-17.3s16.1,8.1,16.1,20.5c0,10.7-3.6,18.2-8.4,22.9
		c-3.8,3.7-8.9,5.9-14.2,6.5c-2.4,0.4-4.5,0.5-6.1,0.4V448.4z M322.9,420.3c0,6.1,3.7,10.3,9.4,10.3c4.4,0,7.9-2.2,9.6-5.1
		c0.4-0.6,0.6-1.3,0.6-2.4c0-8.3-3.1-14.7-10-14.7C326.9,408.5,322.9,413.4,322.9,420.3z"/>
	<path class="st0" d="M372.5,448.4c1.4,0.1,3.1,0,5.3-0.2c3.8-0.5,7.4-2.1,10.2-4.7c3.2-2.9,5.5-7.2,6.5-13h-0.2
		c-2.7,3.3-6.6,5.3-11.5,5.3c-8.8,0-14.4-6.6-14.4-14.9c0-9.2,6.7-17.3,16.6-17.3s16.1,8.1,16.1,20.5c0,10.7-3.6,18.2-8.4,22.9
		c-3.8,3.7-8.9,5.9-14.2,6.5c-2.4,0.4-4.5,0.5-6.1,0.4V448.4z M374.9,420.3c0,6.1,3.7,10.3,9.4,10.3c4.4,0,7.9-2.2,9.6-5.1
		c0.4-0.6,0.6-1.3,0.6-2.4c0-8.3-3.1-14.7-10-14.7C378.8,408.5,374.9,413.4,374.9,420.3z"/>
	<path class="st0" d="M420.6,453v-4l5.2-5c12.4-11.8,18.1-18.1,18.1-25.5c0-5-2.4-9.5-9.7-9.5c-4.4,0-8.1,2.3-10.3,4.1l-2.1-4.6
		c3.4-2.8,8.2-5,13.8-5c10.5,0,14.9,7.2,14.9,14.2c0,9-6.5,16.3-16.8,26.2l-3.9,3.6v0.2h21.9v5.5H420.6z"/>
	<path class="st0" d="M505,428.1c0,16.6-6.1,25.7-16.9,25.7c-9.5,0-16-8.9-16.1-25c0-16.3,7-25.3,16.9-25.3
		C499.1,403.5,505,412.6,505,428.1z M478.5,428.9c0,12.7,3.9,19.9,9.9,19.9c6.8,0,10-7.9,10-20.3c0-12-3.1-19.9-9.9-19.9
		C482.7,408.6,478.5,415.6,478.5,428.9z"/>
</g>
</svg>
